<svg xmlns="http://www.w3.org/2000/svg" width="860" height="980" viewBox="0 0 860 980">
  <rect width="860" height="980" rx="42" fill="#FFFBF5"/>
  <rect x="0" y="0" width="860" height="118" rx="42" fill="#FFFBF5"/>
  <text x="54" y="73" font-family="Arial, sans-serif" font-size="34" font-weight="700" fill="#122438">📅 Calendar</text>
  <rect x="622" y="35" width="112" height="46" rx="18" fill="#FFFFFF" stroke="#CFE2DF"/>
  <text x="642" y="64" font-family="Arial" font-size="20" fill="#087B72">⌯</text><text x="686" y="64" text-anchor="middle" font-family="Arial" font-size="17" font-weight="700" fill="#087B72">Invite</text>
  <circle cx="790" cy="58" r="28" fill="#087B72"/><text x="790" y="68" text-anchor="middle" font-family="Arial" font-size="30" fill="#fff">+</text>

  <rect x="45" y="142" width="160" height="46" rx="23" fill="#FFFFFF" stroke="#D7E7E3"/>
  <text x="64" y="172" font-family="Arial" font-size="19" fill="#607184">♧</text><text x="130" y="171" text-anchor="middle" font-family="Arial, sans-serif" font-size="16" font-weight="700" fill="#607184">All children</text>
  <rect x="217" y="142" width="116" height="46" rx="23" fill="#E9F8F3" stroke="#087B72"/>
  <text x="238" y="172" font-family="Arial" font-size="19">👧</text><text x="286" y="171" text-anchor="middle" font-family="Arial, sans-serif" font-size="16" font-weight="700" fill="#087B72">Mira</text>

  <rect x="45" y="220" width="770" height="64" rx="18" fill="#E8EFED"/>
  <rect x="51" y="226" width="379" height="52" rx="14" fill="#087B72"/>
  <text x="240" y="260" text-anchor="middle" font-family="Arial, sans-serif" font-size="20" font-weight="700" fill="#FFFFFF">Calendar</text>
  <text x="620" y="260" text-anchor="middle" font-family="Arial, sans-serif" font-size="20" font-weight="700" fill="#607184">School</text>

  <text x="56" y="334" font-family="Arial, sans-serif" font-size="20" fill="#607184">‹</text>
  <g font-family="Arial, sans-serif" text-anchor="middle">
    <text x="130" y="321" font-size="15" fill="#607184">MON</text><text x="130" y="354" font-size="22" font-weight="700" fill="#122438">20</text>
    <text x="225" y="321" font-size="15" fill="#607184">TUE</text><text x="225" y="354" font-size="22" font-weight="700" fill="#122438">21</text>
    <rect x="276" y="298" width="74" height="78" rx="25" fill="#087B72"/><text x="313" y="321" font-size="15" fill="#FFFFFF">WED</text><text x="313" y="354" font-size="22" font-weight="700" fill="#FFFFFF">22</text>
    <text x="405" y="321" font-size="15" fill="#607184">THU</text><text x="405" y="354" font-size="22" font-weight="700" fill="#122438">23</text>
    <text x="500" y="321" font-size="15" fill="#607184">FRI</text><text x="500" y="354" font-size="22" font-weight="700" fill="#122438">24</text>
    <text x="595" y="321" font-size="15" fill="#607184">SAT</text><text x="595" y="354" font-size="22" font-weight="700" fill="#122438">25</text>
    <text x="690" y="321" font-size="15" fill="#607184">SUN</text><text x="690" y="354" font-size="22" font-weight="700" fill="#122438">26</text>
  </g>
  <text x="804" y="334" text-anchor="end" font-family="Arial, sans-serif" font-size="20" fill="#607184">›</text>
  <text x="48" y="418" font-family="Arial, sans-serif" font-size="19" font-weight="700" fill="#607184">Jul 2026</text>
  <text x="812" y="418" text-anchor="end" font-family="Arial, sans-serif" font-size="19" font-weight="700" fill="#087B72">Today</text>
  <text x="48" y="462" font-family="Arial, sans-serif" font-size="28" font-weight="700" fill="#122438">Today</text>

  <g>
    <rect x="45" y="482" width="770" height="148" rx="22" fill="#FFFFFF" stroke="#D7E7E3"/>
    <rect x="45" y="482" width="8" height="148" rx="4" fill="#7C8EA3"/>
    <rect x="72" y="502" width="114" height="34" rx="17" fill="#E8EEF3"/><text x="129" y="525" text-anchor="middle" font-family="Arial" font-size="16" font-weight="700" fill="#607184">📌 Other</text>
    <text x="72" y="570" font-family="Arial" font-size="24" font-weight="700" fill="#122438">Coding class ↻</text>
    <rect x="72" y="586" width="190" height="30" rx="15" fill="#FFFFFF" stroke="#D7E7E3"/><text x="167" y="607" text-anchor="middle" font-family="Arial" font-size="15" fill="#607184">◷ 7:00 PM – 8:00 PM</text>
    <rect x="274" y="586" width="160" height="30" rx="15" fill="#EFFAF6" stroke="#087B72"/><text x="354" y="607" text-anchor="middle" font-family="Arial" font-size="15" font-weight="700" fill="#087B72">↻ Repeats weekly</text>
    <rect x="446" y="586" width="112" height="30" rx="15" fill="#EFFAF6" stroke="#087B72"/><text x="502" y="607" text-anchor="middle" font-family="Arial" font-size="15" font-weight="700" fill="#087B72">👧 Mira</text>
  </g>
  <g>
    <rect x="45" y="582" width="770" height="128" rx="22" fill="#FFFFFF" stroke="#D7E7E3"/>
    <rect x="45" y="582" width="8" height="128" rx="4" fill="#7C3AED"/>
    <rect x="72" y="604" width="142" height="34" rx="17" fill="#EDE9FE"/><text x="143" y="627" text-anchor="middle" font-family="Arial" font-size="16" font-weight="700" fill="#6D28D9">📚 Test / exam</text>
    <text x="72" y="671" font-family="Arial" font-size="24" font-weight="700" fill="#122438">Maths fractions test</text>
    <text x="600" y="629" font-family="Arial" font-size="18" fill="#607184">Due tomorrow</text>
    <text x="600" y="664" font-family="Arial" font-size="16" font-weight="700" fill="#F4511E">● High priority</text>
  </g>
  <g>
    <rect x="45" y="728" width="770" height="128" rx="22" fill="#FFFFFF" stroke="#D7E7E3"/>
    <rect x="45" y="728" width="8" height="128" rx="4" fill="#D97706"/>
    <rect x="72" y="750" width="106" height="34" rx="17" fill="#FEF3C7"/><text x="125" y="773" text-anchor="middle" font-family="Arial" font-size="16" font-weight="700" fill="#B45309">🛒 To buy</text>
    <text x="72" y="817" font-family="Arial" font-size="24" font-weight="700" fill="#122438">Science project materials</text>
    <text x="600" y="773" font-family="Arial" font-size="18" fill="#607184">Due Friday</text>
    <text x="72" y="842" font-family="Arial" font-size="16" fill="#607184">Cardboard • glue • coloured paper</text>
  </g>
  <g>
    <rect x="45" y="874" width="770" height="86" rx="22" fill="#FFFFFF" stroke="#D7E7E3"/>
    <rect x="45" y="874" width="8" height="86" rx="4" fill="#0891B2"/>
    <text x="72" y="910" font-family="Arial" font-size="16" font-weight="700" fill="#087B72">🎒 SCHOOL EVENT</text>
    <text x="72" y="940" font-family="Arial" font-size="22" font-weight="700" fill="#122438">Class assembly • Friday, 8:30 AM</text>
  </g>
</svg>
