<svg xmlns="http://www.w3.org/2000/svg" width="860" height="1000" viewBox="0 0 860 1000">
  <rect width="860" height="1000" rx="42" fill="#F8FAF9"/>
  <rect width="860" height="112" rx="42" fill="#FFFFFF"/>
  <text x="50" y="70" font-family="Arial" font-size="36" font-weight="700" fill="#122438">Health</text>
  <rect x="712" y="32" width="102" height="52" rx="18" fill="#087B72"/><text x="763" y="65" text-anchor="middle" font-family="Arial" font-size="20" font-weight="700" fill="#FFF">＋ Add</text>

  <rect x="44" y="128" width="772" height="66" rx="20" fill="#E9F8F3"/>
  <text x="70" y="170" font-family="Arial" font-size="24">👧</text><text x="112" y="170" font-family="Arial" font-size="23" font-weight="700" fill="#07564F">Mira</text>
  <text x="770" y="170" text-anchor="end" font-family="Arial" font-size="18" font-weight="700" fill="#087B72">Change</text>

  <rect x="44" y="214" width="772" height="178" rx="24" fill="#FFFFFF" stroke="#D7E7E3"/>
  <text x="72" y="250" font-family="Arial" font-size="15" font-weight="700" letter-spacing="1" fill="#087B72">HEALTH SNAPSHOT</text>
  <text x="72" y="286" font-family="Arial" font-size="25" font-weight="700" fill="#122438">Vaccinations are up to date</text>
  <text x="765" y="286" text-anchor="end" font-family="Arial" font-size="28" fill="#087B72">🛡️</text>
  <rect x="72" y="316" width="222" height="52" rx="16" fill="#EFFAF6"/><text x="92" y="349" font-family="Arial" font-size="24" font-weight="700" fill="#087B72">14</text><text x="130" y="348" font-family="Arial" font-size="15" font-weight="700" fill="#607184">vaccines logged</text>
  <rect x="312" y="316" width="222" height="52" rx="16" fill="#EFFAF6"/><text x="332" y="349" font-family="Arial" font-size="24" font-weight="700" fill="#087B72">0</text><text x="364" y="348" font-family="Arial" font-size="15" font-weight="700" fill="#607184">overdue</text>
  <rect x="552" y="316" width="222" height="52" rx="16" fill="#EFFAF6"/><text x="572" y="349" font-family="Arial" font-size="24" font-weight="700" fill="#087B72">1</text><text x="604" y="348" font-family="Arial" font-size="15" font-weight="700" fill="#607184">upcoming</text>

  <rect x="44" y="412" width="772" height="58" rx="17" fill="#E8EFED"/>
  <rect x="50" y="418" width="178" height="46" rx="14" fill="#087B72"/><text x="139" y="447" text-anchor="middle" font-family="Arial" font-size="17" font-weight="700" fill="#FFF">Vaccines</text>
  <text x="312" y="447" text-anchor="middle" font-family="Arial" font-size="17" font-weight="700" fill="#607184">Meds</text><text x="455" y="447" text-anchor="middle" font-family="Arial" font-size="17" font-weight="700" fill="#607184">Allergies</text><text x="650" y="447" text-anchor="middle" font-family="Arial" font-size="17" font-weight="700" fill="#607184">Visits</text>

  <rect x="44" y="490" width="772" height="80" rx="20" fill="#FFFFFF" stroke="#CFE2DF"/>
  <text x="70" y="524" font-family="Arial" font-size="21" font-weight="700" fill="#122438">📋 Vaccine Schedule · India NIS</text>
  <text x="70" y="551" font-family="Arial" font-size="16" fill="#087B72">Birth to 2 years · all recorded</text><text x="775" y="538" text-anchor="end" font-family="Arial" font-size="23" fill="#087B72">✓</text>

  <text x="48" y="612" font-family="Arial" font-size="18" font-weight="700" fill="#122438">Logged vaccinations</text>
  <g>
    <rect x="44" y="632" width="772" height="94" rx="20" fill="#FFFFFF" stroke="#D7E7E3"/><rect x="44" y="632" width="8" height="94" rx="4" fill="#16A34A"/>
    <circle cx="82" cy="676" r="19" fill="#DCFCE7"/><text x="82" y="683" text-anchor="middle" font-family="Arial" font-size="18">✓</text>
    <text x="116" y="668" font-family="Arial" font-size="21" font-weight="700" fill="#122438">BCG · OPV 0 · Hepatitis B 1</text><text x="116" y="697" font-family="Arial" font-size="16" fill="#607184">At birth · 18 July 2024</text>
    <rect x="682" y="651" width="100" height="34" rx="17" fill="#DCFCE7"/><text x="732" y="674" text-anchor="middle" font-family="Arial" font-size="15" font-weight="700" fill="#16803B">Given</text>
  </g>
  <g>
    <rect x="44" y="740" width="772" height="94" rx="20" fill="#FFFFFF" stroke="#D7E7E3"/><rect x="44" y="740" width="8" height="94" rx="4" fill="#16A34A"/>
    <circle cx="82" cy="784" r="19" fill="#DCFCE7"/><text x="82" y="791" text-anchor="middle" font-family="Arial" font-size="18">✓</text>
    <text x="116" y="776" font-family="Arial" font-size="21" font-weight="700" fill="#122438">DTP · IPV · Hib · Rotavirus</text><text x="116" y="805" font-family="Arial" font-size="16" fill="#607184">6, 10 and 14 week doses completed</text>
    <rect x="682" y="759" width="100" height="34" rx="17" fill="#DCFCE7"/><text x="732" y="782" text-anchor="middle" font-family="Arial" font-size="15" font-weight="700" fill="#16803B">Given</text>
  </g>
  <g>
    <rect x="44" y="848" width="772" height="94" rx="20" fill="#FFFFFF" stroke="#D7E7E3"/><rect x="44" y="848" width="8" height="94" rx="4" fill="#16A34A"/>
    <circle cx="82" cy="892" r="19" fill="#DCFCE7"/><text x="82" y="899" text-anchor="middle" font-family="Arial" font-size="18">✓</text>
    <text x="116" y="884" font-family="Arial" font-size="21" font-weight="700" fill="#122438">MR / Measles · PCV booster · DTP booster</text><text x="116" y="913" font-family="Arial" font-size="16" fill="#607184">9–24 month doses recorded</text>
    <rect x="682" y="867" width="100" height="34" rx="17" fill="#DCFCE7"/><text x="732" y="890" text-anchor="middle" font-family="Arial" font-size="15" font-weight="700" fill="#16803B">Given</text>
  </g>
  <text x="430" y="978" text-anchor="middle" font-family="Arial" font-size="15" fill="#607184">Records shared securely with both parents</text>
</svg>
